<svg xmlns="http://www.w3.org/2000/svg" viewBox="0 0 974 934" fill="#000000">
  <path d="M748.0,302.0L757.0,299.0C759.0,297.0 761.0,295.0 763.0,293.0C765.0,291.0 767.0,289.0 769.0,287.0C771.0,285.0 773.0,283.0 775.0,281.0C777.0,279.0 779.2,277.2 781.0,275.0C782.8,272.8 784.0,270.0 786.0,268.0C788.0,266.0 791.0,265.0 793.0,263.0C795.0,261.0 796.2,258.2 798.0,256.0C799.8,253.8 801.8,251.8 804.0,250.0C806.2,248.2 809.0,247.0 811.0,245.0C813.0,243.0 814.2,240.2 816.0,238.0C817.8,235.8 820.0,234.0 822.0,232.0C824.0,230.0 826.0,228.0 828.0,226.0C830.0,224.0 832.0,222.0 834.0,220.0C836.0,218.0 837.8,215.8 840.0,214.0C842.2,212.2 844.5,210.5 847.0,209.0C849.5,207.5 852.3,206.3 855.0,205.0C857.7,203.7 860.0,202.0 863.0,201.0C866.0,200.0 869.3,199.3 873.0,199.0C876.7,198.7 881.3,198.7 885.0,199.0C888.7,199.3 892.0,200.0 895.0,201.0C898.0,202.0 900.3,203.7 903.0,205.0C905.7,206.3 908.7,207.3 911.0,209.0C913.3,210.7 915.0,213.0 917.0,215.0C919.0,217.0 921.2,218.8 923.0,221.0C924.8,223.2 926.7,225.3 928.0,228.0C929.3,230.7 930.0,234.0 931.0,237.0C932.0,240.0 933.3,242.7 934.0,246.0C934.7,249.3 935.2,253.5 935.0,257.0C934.8,260.5 933.8,263.8 933.0,267.0C932.2,270.2 931.2,273.2 930.0,276.0C928.8,278.8 927.7,281.7 926.0,284.0C924.3,286.3 921.8,287.8 920.0,290.0C918.2,292.2 917.0,295.0 915.0,297.0C913.0,299.0 910.0,300.0 908.0,302.0C906.0,304.0 904.8,306.8 903.0,309.0C901.2,311.2 899.2,313.2 897.0,315.0C894.8,316.8 892.0,318.0 890.0,320.0C888.0,322.0 886.8,324.8 885.0,327.0C883.2,329.2 881.2,331.2 879.0,333.0C876.8,334.8 874.0,336.0 872.0,338.0C870.0,340.0 868.8,342.8 867.0,345.0C865.2,347.2 863.2,349.2 861.0,351.0C858.8,352.8 856.2,354.2 854.0,356.0C851.8,357.8 849.8,359.8 848.0,362.0C846.2,364.2 845.0,367.0 843.0,369.0C841.0,371.0 838.0,372.0 836.0,374.0C834.0,376.0 832.8,378.8 831.0,381.0C829.2,383.2 827.0,385.0 825.0,387.0C823.0,389.0 821.0,391.0 819.0,393.0C817.0,395.0 815.0,397.0 813.0,399.0C811.0,401.0 809.0,403.0 807.0,405.0C805.0,407.0 803.0,409.0 801.0,411.0C799.0,413.0 797.2,415.2 795.0,417.0C792.8,418.8 790.0,420.0 788.0,422.0C786.0,424.0 785.0,427.0 783.0,429.0C781.0,431.0 778.3,432.3 776.0,434.0C773.7,435.7 771.7,437.7 769.0,439.0C766.3,440.3 763.2,441.2 760.0,442.0C756.8,442.8 753.7,443.7 750.0,444.0C746.3,444.3 741.7,444.3 738.0,444.0C734.3,443.7 731.0,443.0 728.0,442.0C725.0,441.0 722.7,439.3 720.0,438.0C717.3,436.7 714.3,435.7 712.0,434.0C709.7,432.3 708.0,430.0 706.0,428.0C704.0,426.0 702.0,424.0 700.0,422.0C698.0,420.0 696.0,418.0 694.0,416.0C692.0,414.0 690.0,412.0 688.0,410.0C686.0,408.0 684.0,406.0 682.0,404.0C680.0,402.0 678.0,400.0 676.0,398.0C674.0,396.0 672.0,394.0 670.0,392.0C668.0,390.0 666.0,388.0 664.0,386.0C662.0,384.0 660.0,382.0 658.0,380.0C656.0,378.0 654.0,376.0 652.0,374.0C650.0,372.0 648.0,370.0 646.0,368.0C644.0,366.0 642.0,364.0 640.0,362.0L634.0,356.0L627.0,361.2C625.0,363.3 623.0,365.4 621.0,367.5C619.0,369.5 617.0,371.6 615.0,373.7C613.0,375.8 611.0,377.9 609.0,379.9C607.0,382.0 604.9,384.0 602.8,386.0C600.8,388.0 598.7,390.0 596.6,392.0C594.5,394.0 592.4,396.0 590.4,398.0C588.3,400.0 586.2,402.0 584.1,404.0C582.1,406.0 580.0,408.1 578.0,410.1C576.0,412.2 574.0,414.3 572.0,416.4C570.0,418.4 568.0,420.5 566.0,422.6C564.0,424.7 562.0,426.8 560.0,428.8C558.0,430.9 556.0,433.0 553.9,435.0C551.9,437.0 549.8,439.0 547.7,441.0C545.6,443.0 543.5,445.0 541.5,447.0C539.4,449.0 537.3,451.0 535.2,453.0L529.0,459.0L529.0,462.0L535.5,468.0C537.7,470.0 539.9,471.9 542.0,474.0C544.1,476.1 546.0,478.3 548.0,480.5C550.0,482.7 551.9,484.9 554.0,487.0C556.1,489.1 558.3,491.0 560.5,493.0C562.7,495.0 564.9,496.9 567.0,499.0C569.1,501.1 571.0,503.3 573.0,505.5C575.0,507.7 576.9,509.9 579.0,512.0C581.1,514.1 583.3,516.0 585.5,518.0C587.7,520.0 589.9,521.9 592.0,524.0C594.1,526.1 596.0,528.3 598.0,530.5C600.0,532.7 601.9,534.9 604.0,537.0C606.1,539.1 608.3,541.0 610.5,543.0C612.7,545.0 614.9,546.9 617.0,549.0C619.1,551.1 621.0,553.3 623.0,555.5C625.0,557.7 626.9,559.9 629.0,562.0C631.1,564.1 633.3,566.0 635.5,568.0C637.7,570.0 639.9,571.9 642.0,574.0C644.1,576.1 646.0,578.3 648.0,580.5C650.0,582.7 651.9,584.9 654.0,587.0C656.1,589.1 658.3,591.0 660.5,593.0L665.0,601.0L663.0,611.1C662.3,614.5 661.5,617.7 661.0,621.2C660.5,624.8 660.5,628.8 660.0,632.3C659.5,635.9 658.7,639.1 658.0,642.4C657.3,645.8 656.7,649.2 656.0,652.5C655.3,655.9 654.7,659.3 654.0,662.6C653.3,666.0 652.7,669.4 652.0,672.8C651.3,676.1 650.7,679.5 650.0,682.9C649.3,686.2 648.7,689.6 648.0,693.0C647.3,696.3 646.5,699.6 646.0,703.1C645.5,706.6 645.5,710.6 644.8,714.0C644.1,717.4 642.7,720.0 642.0,723.3C641.3,726.6 641.2,730.5 640.6,734.0C640.0,737.5 639.1,740.6 638.5,744.0C637.9,747.4 637.6,751.2 637.0,754.6C636.4,758.1 635.7,761.4 635.0,764.7C634.3,768.1 633.7,771.5 633.0,774.8C632.3,778.2 631.7,781.6 631.0,784.9C630.3,788.3 629.7,791.7 629.0,795.0C628.3,798.4 627.7,801.8 627.0,805.2C626.3,808.5 625.6,811.8 625.0,815.3C624.4,818.7 624.1,822.5 623.6,826.0C623.1,829.5 622.6,833.0 622.0,836.5C621.4,839.9 620.7,843.2 620.0,846.6C619.3,850.0 618.7,853.3 618.0,856.7C617.3,860.1 616.8,863.6 616.0,866.8C615.2,870.0 614.0,872.9 613.0,875.9C612.0,878.9 611.2,882.2 610.0,885.0C608.8,887.9 607.5,890.6 605.9,893.0C604.2,895.4 602.0,897.2 600.0,899.2C598.0,901.3 596.2,903.5 594.0,905.3C591.8,907.2 589.4,908.8 587.0,910.4C584.6,912.1 582.2,913.7 579.4,915.0C576.7,916.3 573.5,917.2 570.3,918.0C567.1,918.8 563.6,919.6 560.2,920.0C556.8,920.4 553.5,920.3 550.0,920.1C546.5,920.0 542.4,919.7 539.0,919.0C535.7,918.3 532.8,917.2 529.9,916.0C527.0,914.8 524.3,913.5 521.8,912.0C519.3,910.5 517.0,908.7 514.7,907.0C512.4,905.3 510.0,903.6 508.0,901.6C506.0,899.6 504.1,897.4 502.5,895.0C500.8,892.6 499.4,890.0 498.0,887.4C496.6,884.7 495.3,882.0 494.3,879.0C493.3,876.0 492.5,872.6 492.0,869.2C491.5,865.7 491.2,861.9 491.0,858.0C490.8,854.2 490.7,849.7 491.1,846.0C491.4,842.3 492.3,839.2 493.0,835.8C493.7,832.5 494.5,829.3 495.0,825.7C495.5,822.2 495.5,818.2 496.0,814.6C496.5,811.1 497.3,807.9 498.0,804.5C498.7,801.1 499.5,797.9 500.0,794.4C500.5,790.9 500.5,786.8 501.0,783.3C501.5,779.8 502.3,776.6 503.0,773.2C503.7,769.8 504.5,766.6 505.0,763.1C505.5,759.5 505.5,755.5 506.0,752.0C506.5,748.5 507.5,745.4 508.0,741.9C508.5,738.3 508.5,734.3 509.0,730.8C509.5,727.2 510.3,724.0 511.0,720.6C511.7,717.3 512.5,714.1 513.0,710.5C513.5,707.0 513.5,703.0 514.0,699.4C514.5,695.9 515.3,692.7 516.0,689.3C516.7,686.0 517.5,682.8 518.0,679.2C518.5,675.7 518.7,671.8 519.0,668.1L521.0,658.0L521.0,657.0L521.0,656.0L514.9,650.0C512.9,647.9 511.0,645.8 509.0,643.8C507.0,641.7 505.0,639.7 503.0,637.6C501.0,635.6 498.9,633.6 497.0,631.5C495.1,629.4 493.3,627.1 491.4,625.0C489.4,622.9 487.3,621.0 485.2,619.0C483.2,617.0 481.0,615.2 479.1,613.0C477.2,610.8 475.9,608.2 474.0,606.0C472.1,603.8 469.9,602.0 467.9,600.0C465.8,598.0 463.8,596.0 461.8,594.0C459.7,592.0 457.6,590.1 455.6,588.0C453.7,585.9 451.9,583.6 450.0,581.5C448.1,579.4 446.0,577.4 444.0,575.4C442.0,573.3 440.0,571.3 438.0,569.2C436.0,567.2 434.0,565.2 432.0,563.1L426.0,557.0L424.0,557.0L418.0,563.0C416.3,565.4 414.8,567.8 412.9,570.0C411.1,572.2 408.9,574.0 406.9,576.0C404.9,578.0 402.9,580.0 400.9,582.0C398.9,584.0 397.0,586.1 395.0,588.1C393.0,590.2 391.0,592.2 389.0,594.2C387.0,596.2 384.9,598.1 383.0,600.2C381.1,602.3 379.7,604.9 377.8,607.0C375.9,609.1 373.7,611.0 371.8,613.0C369.8,615.0 368.0,617.2 366.0,619.3C364.0,621.3 362.0,623.3 360.0,625.3C358.0,627.3 355.9,629.2 354.0,631.3C352.1,633.4 350.5,635.9 348.6,638.0C346.7,640.1 344.6,641.9 342.6,644.0C340.7,646.1 338.9,648.3 337.0,650.4C335.1,652.5 333.0,654.4 331.0,656.4C329.0,658.4 326.9,660.4 325.0,662.5C323.1,664.6 321.4,666.9 319.5,669.0C317.6,671.1 315.6,673.1 313.5,675.0C311.4,676.9 309.7,679.2 307.0,680.5C304.3,681.9 301.0,682.6 297.4,683.0C293.8,683.4 289.4,683.0 285.4,683.0C281.4,683.0 277.4,683.0 273.4,683.0C269.4,683.0 265.4,683.0 261.3,683.0C257.3,683.0 253.3,683.0 249.3,683.0C245.3,683.0 241.3,683.0 237.3,683.0C233.3,683.0 229.3,683.0 225.3,683.0C221.3,683.0 217.2,683.0 213.2,683.0C209.2,683.0 205.2,683.0 201.2,683.0C197.2,683.0 193.2,683.0 189.2,683.0C185.2,683.0 181.2,683.0 177.2,683.0C173.1,683.0 169.1,683.0 165.1,683.0C161.1,683.0 157.1,683.0 153.1,683.0C149.1,683.0 145.1,683.0 141.1,683.0C137.1,683.0 133.1,683.0 129.0,683.0C125.0,683.0 121.0,683.0 117.0,683.0C113.0,683.0 109.0,683.0 105.0,683.0C101.0,683.0 97.0,683.0 93.0,683.0C88.9,683.0 84.8,683.2 80.9,683.0C77.1,682.8 73.4,682.5 69.9,682.0C66.4,681.5 63.0,680.9 59.9,680.0C56.7,679.1 53.7,678.2 51.0,676.8C48.3,675.5 46.2,673.6 43.8,672.0C41.5,670.4 39.0,668.8 36.8,667.0C34.6,665.2 32.7,663.0 30.8,661.0C28.8,659.0 26.6,657.1 25.0,654.7C23.4,652.4 22.2,649.5 21.0,646.7C19.8,643.9 18.7,641.0 17.7,638.0C16.7,635.0 15.6,632.1 15.0,628.7C14.4,625.3 13.8,621.1 14.0,617.6C14.2,614.1 15.3,610.9 16.0,607.6C16.7,604.3 17.0,600.6 18.0,597.6C19.0,594.6 20.5,592.1 22.0,589.5C23.5,587.0 25.2,584.8 27.0,582.5C28.8,580.3 30.5,578.0 32.5,576.0C34.5,574.0 36.8,572.2 39.0,570.5C41.2,568.7 43.6,567.0 46.0,565.4C48.4,563.9 50.7,562.1 53.6,561.0C56.5,559.9 60.3,559.7 63.6,559.0C67.0,558.3 70.1,557.5 73.6,557.0C77.2,556.5 80.8,556.2 84.7,556.0C88.5,555.8 92.7,556.0 96.7,556.0C100.7,556.0 104.7,556.0 108.7,556.0C112.7,556.0 116.7,556.0 120.8,556.0C124.8,556.0 128.8,556.0 132.8,556.0C136.8,556.0 140.8,556.0 144.8,556.0C148.8,556.0 152.8,556.0 156.8,556.0C160.8,556.0 164.9,556.0 168.9,556.0C172.9,556.0 176.9,556.0 180.9,556.0C184.9,556.0 188.9,556.0 192.9,556.0C196.9,556.0 200.9,556.0 204.9,556.0C209.0,556.0 213.0,556.0 217.0,556.0L229.0,556.0L230.0,556.0L235.1,549.0C237.1,546.9 239.0,544.8 241.0,542.7C243.0,540.6 245.1,538.7 247.0,536.6C248.9,534.5 250.6,532.1 252.6,530.0C254.5,527.9 256.8,526.1 258.7,524.0C260.6,521.9 262.1,519.3 264.0,517.1C265.9,515.0 268.1,513.2 270.0,511.0C271.9,508.8 273.3,506.2 275.1,504.0C277.0,501.8 279.3,500.1 281.3,498.0C283.3,495.9 285.0,493.7 287.0,491.6C289.0,489.5 291.0,487.5 293.0,485.4C295.0,483.3 296.9,481.2 298.7,479.0C300.5,476.8 302.1,474.3 304.0,472.1C305.9,470.0 308.0,468.0 310.0,466.0C312.0,464.0 314.1,462.0 316.0,459.9C317.9,457.7 319.5,455.2 321.3,453.0C323.1,450.8 325.0,448.7 327.0,446.6C329.0,444.5 331.0,442.5 333.0,440.4C335.0,438.3 336.9,436.2 338.7,434.0C340.5,431.8 342.1,429.3 344.0,427.1C345.9,425.0 348.0,423.0 350.0,421.0C352.0,419.0 354.1,417.0 356.0,414.9C357.9,412.7 359.5,410.2 361.3,408.0C363.1,405.8 365.0,403.7 367.0,401.6C369.0,399.5 371.0,397.5 373.0,395.4C375.0,393.3 376.7,391.1 378.7,389.0C380.7,386.9 383.0,385.2 384.9,383.0C386.7,380.8 388.1,378.2 390.0,376.0C391.9,373.8 394.0,371.9 396.0,369.9C398.0,367.8 400.1,365.9 402.0,363.7C403.9,361.6 405.6,359.2 407.4,357.0C409.3,354.8 411.1,352.5 413.0,350.4C414.9,348.3 417.0,346.4 419.0,344.3C421.0,342.2 423.0,340.2 424.9,338.0C426.7,335.8 428.1,333.2 430.0,331.0C431.9,328.8 434.1,327.0 436.1,325.0C438.1,323.0 440.1,320.9 442.0,318.7C443.9,316.5 445.6,314.2 447.4,312.0C449.3,309.8 451.1,307.5 453.0,305.4C454.9,303.3 457.0,301.4 459.0,299.3C461.0,297.2 462.9,295.1 464.9,293.0L470.0,286.0L457.7,286.0C453.6,286.0 449.4,286.0 445.3,286.0L433.0,286.0L427.0,292.1C425.0,294.2 422.9,296.1 421.0,298.3C419.1,300.4 417.5,302.9 415.6,305.0C413.7,307.1 411.4,308.9 409.5,311.0C407.5,313.1 405.9,315.5 404.0,317.7C402.1,319.8 400.0,321.8 398.0,323.8C396.0,325.8 394.0,327.9 392.0,329.9C390.0,332.0 387.9,334.0 385.9,336.0C383.9,338.0 382.0,340.1 380.0,342.2C378.0,344.3 375.9,346.2 374.0,348.3C372.1,350.5 370.5,352.9 368.5,355.0C366.6,357.1 364.4,359.0 362.4,361.0C360.4,363.0 358.2,364.9 356.3,367.0C354.4,369.1 352.9,371.7 351.0,373.9C349.1,376.0 347.0,378.0 345.0,380.0C343.0,382.0 340.9,384.0 338.9,386.0C336.9,388.0 335.0,390.3 333.0,392.3C331.0,394.3 328.8,396.1 326.6,398.0C324.4,399.9 322.4,401.9 320.0,403.5C317.6,405.2 315.1,406.8 312.3,408.0C309.5,409.2 306.4,410.2 303.2,411.0C300.0,411.8 296.5,412.8 293.0,412.9C289.5,413.1 285.4,412.5 281.9,412.0C278.4,411.5 275.0,410.8 272.0,409.8C269.0,408.8 266.2,407.5 263.7,406.0C261.1,404.5 258.7,402.8 256.5,401.0C254.3,399.2 252.3,397.1 250.4,395.0C248.5,392.9 246.6,390.7 245.0,388.3C243.4,385.8 242.2,383.0 241.0,380.1C239.8,377.3 238.7,374.4 238.0,371.0C237.3,367.6 237.0,363.6 237.0,359.9C237.0,356.2 237.3,352.1 238.0,348.7C238.7,345.4 239.9,342.6 241.0,339.6C242.1,336.6 243.1,333.6 244.5,331.0C246.0,328.4 247.9,326.3 249.7,324.0C251.4,321.7 253.1,319.4 255.0,317.2C256.9,315.0 259.0,313.1 261.0,311.1C263.0,309.0 264.9,306.9 267.1,305.0C269.2,303.1 271.8,301.7 274.0,299.8C276.2,297.9 278.0,295.7 280.0,293.7C282.0,291.6 283.9,289.5 286.0,287.5C288.1,285.6 290.5,283.9 292.6,282.0C294.7,280.1 296.7,278.0 298.7,276.0C300.8,274.0 302.8,272.0 304.9,270.0C306.9,268.0 309.0,266.0 311.0,264.0C313.0,262.0 315.1,260.0 317.1,258.0C319.2,256.0 321.2,254.0 323.3,252.0C325.3,250.0 327.3,247.9 329.4,246.0C331.5,244.1 333.9,242.4 336.0,240.5C338.1,238.5 340.0,236.4 342.0,234.3C344.0,232.3 345.8,230.1 348.0,228.2C350.2,226.3 352.8,224.9 354.9,223.0C357.1,221.1 359.0,219.0 361.0,216.9C363.0,214.9 364.9,212.8 367.0,210.8C369.1,208.8 371.3,207.0 373.3,205.0C375.4,203.0 377.4,201.0 379.5,199.0C381.5,197.0 383.5,195.0 385.6,193.0C387.7,191.0 389.9,189.2 392.0,187.3C394.1,185.3 396.0,183.2 398.0,181.1L405.0,176.0L416.1,175.0C420.1,175.0 424.1,175.0 428.2,175.0C432.2,175.0 436.2,175.0 440.2,175.0C444.3,175.0 448.3,175.0 452.3,175.0C456.3,175.0 460.4,175.0 464.4,175.0C468.4,175.0 472.4,175.0 476.5,175.0C480.5,175.0 484.5,175.0 488.5,175.0C492.6,175.0 496.6,175.0 500.6,175.0C504.6,175.0 508.7,175.0 512.7,175.0C516.7,175.0 520.7,175.0 524.8,175.0C528.8,175.0 532.8,175.0 536.8,175.0C540.9,175.0 544.9,175.0 548.9,175.0C552.9,175.0 557.0,175.0 561.0,175.0C565.0,175.0 569.1,175.0 573.1,175.0C577.1,175.0 581.3,174.8 585.2,175.0C589.0,175.2 592.9,175.3 596.2,176.0C599.6,176.7 602.4,177.8 605.3,179.0C608.2,180.2 610.9,181.5 613.4,183.0C615.9,184.5 618.2,186.2 620.5,188.0C622.7,189.8 624.8,191.7 627.0,193.5C629.2,195.4 631.5,197.1 633.6,199.0C635.7,200.9 637.6,203.0 639.7,205.0C641.8,207.0 643.9,208.8 646.0,210.8C648.1,212.7 649.8,215.0 652.0,216.8C654.2,218.7 656.8,220.1 658.9,222.0C661.1,223.9 663.0,226.0 665.0,228.0C667.0,230.0 669.1,232.0 671.1,234.0C673.1,236.0 675.0,238.1 677.2,240.0C679.3,241.9 681.9,243.3 684.0,245.2C686.1,247.1 687.9,249.3 690.0,251.3C692.1,253.3 694.3,255.1 696.4,257.0C698.5,258.9 700.4,261.1 702.5,263.0C704.6,264.9 706.9,266.6 709.0,268.5C711.1,270.5 712.9,272.7 715.0,274.6C717.1,276.5 719.6,278.1 721.7,280.0C723.8,281.9 725.7,284.0 727.8,286.0C729.8,288.0 731.8,290.0 733.8,292.0C735.9,294.0 737.9,295.9 740.0,297.9L748.0,302.0Z"/>
  <path d="M738.0,32.0C741.7,31.7 746.4,31.7 750.1,32.0C753.8,32.3 756.8,33.3 760.1,34.0C763.5,34.7 767.0,35.2 770.2,36.0C773.4,36.8 776.4,37.8 779.3,39.0C782.1,40.2 784.6,41.7 787.3,43.0C790.0,44.3 792.9,45.4 795.4,47.0C797.8,48.6 799.8,50.6 802.0,52.4C804.2,54.3 806.4,56.1 808.5,58.0C810.6,59.9 812.7,61.9 814.6,64.0C816.5,66.1 818.3,68.4 820.0,70.6C821.7,72.9 823.5,75.2 825.0,77.7C826.5,80.2 827.7,83.1 829.0,85.8C830.3,88.4 831.8,91.0 833.0,93.8C834.2,96.7 835.2,99.7 836.0,102.9C836.8,106.1 837.5,109.4 838.0,113.0C838.5,116.5 838.8,120.2 839.0,124.0C839.2,127.9 839.3,132.4 839.0,136.1C838.7,139.8 837.7,142.8 837.0,146.1C836.3,149.5 835.7,152.9 834.8,156.0C833.9,159.1 833.0,162.3 831.7,165.0C830.4,167.7 828.5,169.8 827.0,172.3C825.5,174.9 824.6,178.0 823.0,180.4C821.4,182.8 819.4,184.8 817.5,187.0C815.7,189.2 814.0,191.5 812.0,193.5C810.0,195.5 807.6,197.1 805.4,199.0C803.2,200.9 801.4,203.0 799.0,204.7C796.6,206.3 793.8,207.5 791.3,209.0C788.8,210.5 786.7,212.4 784.0,213.8C781.3,215.1 778.2,216.0 775.2,217.0C772.2,218.0 769.4,219.2 766.0,219.9C762.6,220.6 758.7,220.7 755.0,221.0C751.4,221.3 747.7,222.0 744.0,222.0C740.3,222.0 736.6,221.4 732.9,221.0C729.2,220.6 725.4,220.5 722.0,219.8C718.6,219.2 715.7,218.1 712.8,217.0C709.9,215.9 707.4,214.3 704.7,213.0C702.0,211.7 699.3,210.4 696.7,209.0C694.0,207.6 691.4,206.3 689.0,204.6C686.6,202.9 684.7,200.9 682.5,199.0C680.4,197.1 677.9,195.6 676.0,193.5C674.1,191.4 672.8,188.6 671.0,186.4C669.2,184.2 667.0,182.4 665.3,180.0C663.7,177.6 662.4,174.9 661.0,172.3C659.6,169.6 658.3,166.9 657.0,164.2C655.7,161.5 654.1,159.0 653.1,156.0C652.1,153.0 651.7,149.4 651.0,146.1C650.3,142.7 649.3,139.7 649.0,136.0C648.7,132.3 648.7,127.6 649.0,124.0C649.3,120.3 650.5,117.4 651.0,113.9C651.5,110.4 651.5,106.3 652.2,103.0C652.9,99.7 654.1,96.9 655.2,94.0C656.4,91.1 657.6,88.4 659.0,85.7C660.4,83.0 661.8,80.4 663.4,78.0C664.9,75.6 666.7,73.3 668.4,71.0C670.1,68.7 671.6,66.2 673.5,64.0C675.3,61.8 677.5,59.9 679.6,58.0C681.6,56.1 683.8,54.2 686.0,52.4C688.2,50.6 690.5,48.9 693.0,47.3C695.5,45.8 698.1,44.4 700.7,43.0C703.4,41.6 706.0,40.2 708.8,39.0C711.7,37.8 714.7,36.8 717.9,36.0C721.1,35.2 724.6,34.7 727.9,34.0C731.3,33.3 734.3,32.3 738.0,32.0Z"/>
</svg>